<svg data-v-0dd9719b="" version="1.0" xmlns="http://www.w3.org/2000/svg" xmlns:xlink="http://www.w3.org/1999/xlink" width="340" height="250" viewBox="0 0 340.000000 250.000000" preserveAspectRatio="xMidYMid meet" color-interpolation-filters="sRGB" style="margin: auto;"> <rect data-v-0dd9719b="" x="0" y="0" width="100%" height="100%" fill="#FFFFFF" fill-opacity="0" class="background"></rect> <!----> <g data-v-0dd9719b="" fill="#F63F61" class="icon-text-wrapper icon-svg-group iconsvg" transform="translate(96.45500183105469,98.3174991607666)"><g class="iconsvg-imagesvg" transform="translate(0,0)" fill="#F63F61"><g fill="#F63F61"><rect fill="#F63F61" fill-opacity="0" stroke-width="2px" x="0" y="0" width="45.59999999999999" height="45.59999999999999" class="image-rect"></rect> <svg x="0" y="0" width="45.59999999999999" height="45.59999999999999" filtersec="colorsb5021436380" class="image-svg-svg primary" style="overflow: visible;" fill="#F63F61"><svg xmlns="http://www.w3.org/2000/svg" viewBox="-1.4901161193847656e-8 0 124.5999984741211 124.5999984741211" fill="#F63F61"><path d="M57.5 38.9c-.8.2-1.5.4-2.3.6.7-.2 1.5-.4 2.3-.6zM61.1 38.5c-.8 0-1.6.1-2.4.2.7-.1 1.5-.2 2.4-.2z" fill="#F63F61"></path><path d="M62.3 124.6c-17.7 0-33.7-7.4-45.1-19.3-.7-.7-1.4-1.5-2-2.2l-1.5-1.8C8.5 94.8 4.5 87.2 2.3 78.9c-.2-.7-.4-1.5-.6-2.2C1.2 74.5.8 72.3.5 70c-.1-.9-.2-1.9-.3-2.8-.1-1.6-.2-3.3-.2-4.9C0 51.7 8.6 43 19.2 43c5.3 0 10.1 2.2 13.6 5.6 3.5 3.5 5.6 8.3 5.6 13.6C38.4 75.4 49.1 86 62.2 86c-5.3 0-10.1 2.2-13.6 5.6-3.5 3.5-5.6 8.3-5.6 13.6 0 10.7 8.6 19.3 19.3 19.4zM82.6 74.6z" fill="#9E394F"></path><path d="M124.6 62.3c0 34.4-27.9 62.3-62.3 62.3-10.6 0-19.2-8.6-19.2-19.2 0-5.3 2.1-10.1 5.6-13.6 3.5-3.5 8.3-5.6 13.6-5.6 6.6 0 12.5-2.7 16.8-7 .5-.5 1.1-1.1 1.5-1.7.2-.3.5-.6.7-.9.5-.6.9-1.2 1.3-1.9 2.2-3.6 3.4-7.8 3.4-12.4 0 5.3 2.2 10.1 5.6 13.6 3.5 3.5 8.3 5.6 13.6 5.6 10.7 0 19.4-8.6 19.4-19.2z" fill="#FAAE00"></path><path d="M81.5 19.2c0 5.3-2.2 10.1-5.6 13.6-3.5 3.5-8.3 5.6-13.6 5.6h-1.2c-.8 0-1.6.1-2.4.2-.4.1-.8.1-1.2.2-.8.2-1.5.4-2.3.6-2.2.7-4.3 1.7-6.2 3-1 .6-1.8 1.4-2.7 2.1-.3.3-.6.5-.8.8l-.8.8c-.8.9-1.5 1.7-2.1 2.7-1.3 1.9-2.3 4-3 6.2-.2.7-.4 1.5-.6 2.3-.1.4-.1.8-.2 1.2-.1.8-.2 1.6-.2 2.4v1.2c0-5.3-2.1-10.1-5.6-13.6-3.5-3.5-8.3-5.6-13.6-5.6C8.6 43 0 51.7 0 62.3c0-12 3.4-23.3 9.3-32.8.8-1.4 1.7-2.7 2.7-4 .7-1 1.4-1.9 2.2-2.9.6-.8 1.3-1.5 2-2.3.7-.7 1.4-1.5 2.1-2.2 1.8-1.8 3.6-3.4 5.6-5 .6-.5 1.2-1 1.9-1.4 1.4-1 2.8-2 4.3-2.8 1.3-.8 2.6-1.5 3.9-2.2 3.6-1.8 7.4-3.3 11.3-4.4 1-.3 2-.5 3-.8 2-.5 4.1-.8 6.1-1.1 1-.1 2.1-.2 3.1-.3 1.6 0 3.2-.1 4.8-.1 10.6 0 19.2 8.6 19.2 19.2z" fill="#F63F61"></path><path d="M124.6 62.3c0 10.6-8.6 19.2-19.2 19.2-5.3 0-10.1-2.1-13.6-5.6-3.5-3.5-5.6-8.3-5.6-13.6 0-1.2-.1-2.4-.3-3.6-.1-.8-.3-1.6-.5-2.3-.6-2.3-1.5-4.4-2.7-6.4-.4-.7-.8-1.3-1.3-1.9-.2-.3-.5-.6-.7-.9-.5-.6-1-1.2-1.5-1.7l-.8-.8-.6-.6c-.3-.3-.7-.6-1.1-.8-.3-.3-.7-.5-1-.7-1.9-1.3-4-2.3-6.2-3-.7-.2-1.5-.4-2.3-.6-.4-.1-.8-.1-1.2-.2-.8-.1-1.6-.2-2.4-.2h-1.2c5.3 0 10.1-2.1 13.6-5.6 3.5-3.5 5.6-8.3 5.6-13.6C81.5 8.6 72.9 0 62.3 0c34.4 0 62.3 27.9 62.3 62.3z" fill="#F86A42"></path><path d="M67.1 38.9c.8.2 1.5.4 2.3.6-.8-.2-1.5-.4-2.3-.6zM79.1 45.4c.5.5 1.1 1.1 1.5 1.7-.4-.6-.9-1.1-1.5-1.7zM82.6 49.9c-.4-.7-.8-1.3-1.3-1.9.5.6.9 1.3 1.3 1.9z" fill="#F63F61"></path></svg></svg> <!----></g></g> <g transform="translate(51.599998474121094,4.23499870300293)" fill="#F63F61"><g data-gra="path-name" fill-rule="" class="tp-name iconsvg-namesvg" fill="#F63F61"><g transform="scale(1)" fill="#F63F61"><g fill="#F63F61"><path d="M16.67-31.41L16.67-31.41Q16.67-32.72 17.68-33.79 18.69-34.85 18.69-35.36L18.69-35.36Q18.69-35.97 18.26-36.27 17.83-36.57 16.97-36.57L16.97-36.57Q15.2-36.57 14.41-34.52 13.63-32.47 13.63-29.33L13.63-29.33 13.53-24.01 19.3-24.01 18.44-22.09 13.53-22.09 13.53-6.33 13.58-4Q13.58-2.18 13.88-1.62 14.18-1.06 15.65-0.86L15.65-0.86 17.48-0.81 17.48 0 0.46 0 0.46-0.81 1.67-0.86Q3.14-1.01 3.44-1.57 3.75-2.13 3.75-4L3.75-4 3.8-6.33 3.8-22.09 0.1-22.09 0.91-24.01 3.8-24.01Q3.8-25.02 3.88-26.16 3.95-27.3 3.95-27.81L3.95-27.81Q3.95-31.41 8.08-34.42 12.21-37.43 17.43-37.43L17.43-37.43Q20.87-37.43 23.48-35.99 26.09-34.55 26.09-31.71L26.09-31.71Q26.09-29.89 24.59-28.65 23.1-27.4 21.28-27.4L21.28-27.4Q19.45-27.4 18.06-28.49 16.67-29.58 16.67-31.41ZM40.05-0.81L40.05 0 23.64 0 23.64-0.81 24.86-0.86Q26.33-1.01 26.63-1.57 26.93-2.13 26.93-4L26.93-4 26.98-6.33 26.98-18.44 26.93-20.52Q26.83-21.73 26.63-22.34 26.43-22.95 24.81-23.1L24.81-23.1 23.44-23.2 23.44-24.01 36.71-24.01 36.71-6.33 36.76-4Q36.76-2.18 37.06-1.6 37.37-1.01 38.84-0.86L38.84-0.86 40.05-0.81ZM26.88-32.47L26.88-32.47Q26.88-34.45 28.33-35.84 29.77-37.23 31.8-37.23L31.8-37.23Q33.87-37.23 35.32-35.89 36.76-34.55 36.76-32.47L36.76-32.47Q36.76-30.44 35.32-29.05 33.87-27.66 31.8-27.66L31.8-27.66Q29.77-27.66 28.33-29.05 26.88-30.44 26.88-32.47ZM48.8-6.43L48.8-22.09 45.36-22.09 45.36-23.45Q47.08-23.91 48.95-25.15 50.83-26.39 52.53-28.04 54.22-29.68 55.36-31.25 56.5-32.82 57.11-34.09L57.11-34.09 58.53-34.09 58.53-24.01 65.16-24.01 64.45-22.09 58.53-22.09 58.53-8.31 58.63-5.72Q58.63-3.55 59.59-2.43 60.55-1.32 62.02-1.32L62.02-1.32Q64-1.32 64.91-2.96 65.82-4.61 65.82-6.64L65.82-6.64 66.53-6.64Q66.53-3.8 64.86-1.65 63.19 0.51 57.67 0.51L57.67 0.51Q54.17 0.51 51.49-1.32 48.8-3.14 48.8-6.43L48.8-6.43ZM71.53-20.57L71.53-20.57Q70.92-21.83 70.52-22.36 70.11-22.9 69.45-23.05L69.45-23.05 67.48-23.2 67.48-24.01 84.04-24.01 84.04-23.2 83.28-23.2Q82.88-23.2 82.25-23.07 81.61-22.95 81.61-22.04L81.61-22.04Q81.61-21.63 81.81-21 82.02-20.36 82.22-19.76L82.22-19.76 86.17-10.33Q86.68-11.55 87.79-14.31 88.91-17.07 89.56-19 90.22-20.92 90.22-21.78L90.22-21.78Q90.22-22.44 90-22.69 89.77-22.95 88.75-23.1L88.75-23.1 87.13-23.2 87.13-24.01 95.59-24.01 95.59-23.2Q95.29-23.2 94.96-23.17 94.63-23.15 93.74-23 92.86-22.85 92.25-22.09 91.64-21.33 90-17.12 88.35-12.92 86.45-8.21 84.55-3.5 82.19 1.57 79.84 6.64 77.79 9.17 75.74 11.7 72.29 11.7L72.29 11.7Q70.27 11.7 68.57 10.33 66.87 8.97 66.87 6.79L66.87 6.79Q66.87 4.76 68.24 3.34 69.61 1.92 71.73 1.92L71.73 1.92Q73.91 1.92 75.13 3.19 76.34 4.46 76.34 6.18L76.34 6.18Q76.34 7.9 75.38 8.97 74.42 10.03 74.42 10.23L74.42 10.23Q74.87 10.18 75.38 10.13L75.38 10.13Q76.5 9.62 77.53 8.21 78.57 6.79 79.38 5.27 80.19 3.75 81.11 1.67L81.11 1.67Q79.99-0.96 78.34-4.84 76.7-8.71 74.7-13.37 72.7-18.03 71.53-20.57Z" transform="translate(-0.10000000149011612, 37.43000030517578)" fill="#F63F61"></path></g> <!----> <!----> <!----> <!----> <!----> <!----> <!----></g></g> <!----></g></g><defs v-gra="od"></defs></svg>